<mxfile host="Electron" modified="2024-05-18T15:43:35.250Z" agent="Mozilla/5.0 (X11; Linux x86_64) AppleWebKit/537.36 (KHTML, like Gecko) draw.io/24.4.0 Chrome/120.0.6099.109 Electron/28.1.0 Safari/537.36" etag="iA6mamDxoObAk8x95y_x" version="24.4.0" type="device">
  <diagram name="Page-1" id="gYRhG5SJ2guM-zbFvOUa">
    <mxGraphModel dx="-666" dy="-582" grid="1" gridSize="10" guides="1" tooltips="1" connect="1" arrows="1" fold="1" page="0" pageScale="1" pageWidth="4681" pageHeight="3300" math="0" shadow="0">
      <root>
        <mxCell id="0" />
        <mxCell id="1" parent="0" />
        <mxCell id="8_CNO6_jjVgUGv1Qgo-n-1" value="Legend" style="rounded=1;whiteSpace=wrap;html=1;verticalAlign=top;" vertex="1" parent="1">
          <mxGeometry x="1640" y="1520" width="120" height="240" as="geometry" />
        </mxCell>
        <mxCell id="8_CNO6_jjVgUGv1Qgo-n-2" value="manual step" style="rounded=1;whiteSpace=wrap;html=1;fontSize=12;" vertex="1" parent="1">
          <mxGeometry x="1660" y="1560" width="80" height="30" as="geometry" />
        </mxCell>
        <mxCell id="8_CNO6_jjVgUGv1Qgo-n-3" value="attribute" style="rounded=1;whiteSpace=wrap;html=1;fillColor=#f8cecc;strokeColor=#b85450;fontSize=12;" vertex="1" parent="1">
          <mxGeometry x="1660" y="1600" width="80" height="30" as="geometry" />
        </mxCell>
        <mxCell id="8_CNO6_jjVgUGv1Qgo-n-4" value="LLM Call" style="rounded=1;whiteSpace=wrap;html=1;fillColor=#fff2cc;strokeColor=#d6b656;fontSize=12;" vertex="1" parent="1">
          <mxGeometry x="1660" y="1640" width="80" height="30" as="geometry" />
        </mxCell>
        <mxCell id="8_CNO6_jjVgUGv1Qgo-n-5" value="programmatic processing" style="rounded=1;whiteSpace=wrap;html=1;fillColor=#f5f5f5;strokeColor=#666666;fontSize=12;fontColor=#333333;" vertex="1" parent="1">
          <mxGeometry x="1660" y="1680" width="80" height="30" as="geometry" />
        </mxCell>
        <mxCell id="8_CNO6_jjVgUGv1Qgo-n-6" value="image generator" style="rounded=1;whiteSpace=wrap;html=1;fillColor=#d5e8d4;strokeColor=#82b366;fontSize=12;" vertex="1" parent="1">
          <mxGeometry x="1660" y="1720" width="80" height="30" as="geometry" />
        </mxCell>
        <mxCell id="8_CNO6_jjVgUGv1Qgo-n-7" value="Pressekodex&lt;div&gt;pre processing&lt;/div&gt;" style="rounded=1;whiteSpace=wrap;html=1;" vertex="1" parent="1">
          <mxGeometry x="1800" y="1560" width="120" height="40" as="geometry" />
        </mxCell>
        <mxCell id="8_CNO6_jjVgUGv1Qgo-n-8" value="download article" style="rounded=1;whiteSpace=wrap;html=1;fillColor=#f5f5f5;strokeColor=#666666;fontSize=12;fontColor=#333333;" vertex="1" parent="1">
          <mxGeometry x="2080" y="1560" width="80" height="40" as="geometry" />
        </mxCell>
        <mxCell id="8_CNO6_jjVgUGv1Qgo-n-9" value="download image" style="rounded=1;whiteSpace=wrap;html=1;fillColor=#f5f5f5;strokeColor=#666666;fontSize=12;fontColor=#333333;" vertex="1" parent="1">
          <mxGeometry x="2080" y="1640" width="80" height="40" as="geometry" />
        </mxCell>
      </root>
    </mxGraphModel>
  </diagram>
</mxfile>
